<?xml version="1.0" encoding="UTF-8"?>
<svg version="1.1" xmlns="http://www.w3.org/2000/svg" width="512" height="512">
<path d="M0 0 C1.15627948 -0.00694553 2.31255897 -0.01389106 3.50387722 -0.02104706 C6.69108414 -0.03610916 9.87768602 -0.03340302 13.06489241 -0.02289402 C16.51080592 -0.01587466 19.95662598 -0.03192059 23.4025116 -0.04489136 C30.14445861 -0.06649106 36.88623656 -0.06641486 43.62820678 -0.05826581 C49.10990244 -0.05195621 54.59154894 -0.05311163 60.07324409 -0.05953789 C60.85456469 -0.06043954 61.63588528 -0.0613412 62.44088225 -0.06227018 C64.02832215 -0.06412145 65.61576203 -0.06598401 67.2032019 -0.06785773 C82.07644035 -0.08442218 96.94958383 -0.07572858 111.82281656 -0.05887216 C125.4179103 -0.04417664 139.012783 -0.05880384 152.60784828 -0.08764232 C166.58193894 -0.11706309 180.55592768 -0.12800078 194.53004795 -0.11846012 C196.11182946 -0.11743761 197.69361099 -0.116443 199.27539253 -0.11547661 C200.05357373 -0.11500022 200.83175492 -0.11452383 201.63351737 -0.114033 C207.10523997 -0.11187239 212.57686569 -0.12165409 218.04856682 -0.13624763 C224.72176946 -0.15379809 231.3946904 -0.15361496 238.06788211 -0.13089598 C241.46977866 -0.11977808 244.8711794 -0.11653453 248.27305412 -0.13519669 C251.96766372 -0.15113813 255.66092257 -0.13616285 259.35546875 -0.11352539 C260.95427506 -0.13127898 260.95427506 -0.13127898 262.58538049 -0.14939123 C270.66884482 -0.04899431 277.3768442 1.90208632 283.38766855 7.52124304 C289.93203202 14.57665337 292.12016823 20.98027202 292.2412262 30.5146637 C291.73457893 35.80559457 290.8464644 41.01339428 289.93263245 46.24513245 C289.68337837 47.73136628 289.4353476 49.21780573 289.18847656 50.70443726 C288.54135923 54.5812976 287.87786816 58.45517403 287.21070862 62.32862854 C286.53046268 66.29584572 285.86604189 70.26570972 285.20021057 74.23536682 C283.89586007 81.99778056 282.57416729 89.75710852 281.2412262 97.5146637 C281.81814713 97.51830933 282.39506805 97.52195496 282.98947144 97.52571106 C289.04164157 97.56780535 295.09307223 97.63733583 301.14479065 97.72218323 C303.39764478 97.75025718 305.65059492 97.77153861 307.90357971 97.78565979 C311.15855082 97.80727793 314.41238384 97.8540247 317.66700745 97.9052887 C318.66017471 97.90651733 319.65334198 97.90774597 320.67660522 97.90901184 C331.710636 98.13561445 340.08633474 101.40861616 348.01075745 109.08106995 C356.57768105 118.42816873 358.85654785 127.49321006 358.58460999 139.96635437 C358.07194265 150.87786469 355.96630659 161.67100115 354.13244152 172.420573 C353.54703897 175.86777791 352.97687105 179.31750934 352.40437317 182.76687622 C351.44269056 188.54677326 350.46941954 194.32462375 349.48878479 200.10133362 C348.36033048 206.7495939 347.24984679 213.40066614 346.14896464 220.05354351 C345.08137103 226.50302351 344.00176836 232.95043727 342.91655731 239.39697456 C342.45837194 242.11974604 342.00415957 244.84313418 341.5532608 247.56712151 C340.92218349 251.37524428 340.27346765 255.18025123 339.62306213 258.98512268 C339.44107773 260.09548889 339.25909332 261.2058551 339.07159424 262.34986877 C336.64424256 276.32932945 331.7183742 289.47274552 320.2412262 298.5146637 C313.35606513 302.64138186 306.35852374 305.77718465 298.2358551 305.74171448 C297.07510468 305.74156342 295.91435425 305.74141235 294.71842957 305.74125671 C293.48071808 305.73093414 292.24300659 305.72061157 290.9677887 305.7099762 C289.04946732 305.70573135 289.04946732 305.70573135 287.09239197 305.70140076 C283.70902521 305.6921239 280.32593294 305.67418552 276.94264221 305.6519928 C273.48360046 305.6314541 270.02453023 305.62238196 266.56544495 305.61231995 C259.79063005 305.5902957 253.01594396 305.55684487 246.2412262 305.5146637 C246.14180725 306.39340149 246.04238831 307.27213928 245.93995667 308.17750549 C244.58807565 319.57451311 242.80367733 330.88239483 240.8921051 342.19801331 C240.36443715 345.33780913 239.85163538 348.47982416 239.33888245 351.62208557 C238.99734621 353.65544204 238.6549289 355.68865075 238.3115387 357.72169495 C238.08943222 359.10334587 238.08943222 359.10334587 237.86283875 360.51290894 C235.07396733 376.66531326 228.19200008 390.31983457 214.8974762 400.26856995 C203.61012801 407.5796932 191.86549009 409.1118335 178.67628479 409.01637268 C177.16200765 409.02016574 175.64773401 409.02567385 174.13346863 409.03274536 C170.06376798 409.04657687 165.99449582 409.03562341 161.92481947 409.01903415 C157.65281385 409.00508703 153.38083066 409.01165368 149.10881042 409.01516724 C141.9489406 409.01785885 134.78923948 409.00447449 127.62940979 408.98121643 C119.35110778 408.95451143 111.07308577 408.95289561 102.79475534 408.96460479 C94.81502917 408.97537217 86.8354043 408.96921029 78.85568619 408.95504951 C75.46417979 408.94929087 72.07274757 408.94937116 68.68124008 408.95411491 C64.69689029 408.95887795 60.71284871 408.94881151 56.72855759 408.92716026 C55.26561523 408.92158672 53.80264329 408.9211323 52.33969879 408.92611313 C50.3467745 408.93204905 48.35382023 408.91775115 46.36094666 408.90234375 C44.68694825 408.89869891 44.68694825 408.89869891 42.9791317 408.89498043 C40.2412262 408.5146637 40.2412262 408.5146637 38.35874367 407.24043369 C37.2412262 405.5146637 37.2412262 405.5146637 37.2412262 401.5146637 C30.6412262 401.5146637 24.0412262 401.5146637 17.2412262 401.5146637 C16.9112262 403.1646637 16.5812262 404.8146637 16.2412262 406.5146637 C13.39299943 409.36289046 11.40981852 408.84866378 7.4287262 408.8896637 C-7.34216543 408.82216804 -20.97231264 402.7980834 -31.6962738 392.70606995 C-47.67497543 375.72869947 -48.91669531 356.24996555 -48.92674255 334.1943512 C-48.92996239 332.52386955 -48.93332699 330.85338818 -48.93682861 329.1829071 C-48.94278513 325.69827114 -48.94467191 322.21365986 -48.94407654 318.72901917 C-48.94397465 314.27964789 -48.95766976 309.83043524 -48.97484875 305.38110161 C-48.98599824 301.93743673 -48.98799491 298.49381001 -48.98746681 295.05012894 C-48.98864082 293.40999425 -48.99302982 291.76985838 -49.00079918 290.12974167 C-49.01066725 287.83329512 -49.00769538 285.53719073 -49.00169373 283.24073792 C-49.00311874 281.93853302 -49.00454376 280.63632812 -49.00601196 279.29466248 C-48.55540868 272.40543519 -47.16513295 267.05257421 -42.4228363 261.92481995 C-40.08032909 259.93973754 -37.73260448 259.15191313 -34.7587738 258.5146637 C-34.72010193 257.6793512 -34.72010193 257.6793512 -34.6806488 256.8271637 C-34.00595619 247.74948125 -30.40069434 240.7605064 -23.7587738 234.5146637 C-17.7602837 229.97980518 -12.16259354 227.40373523 -4.5634613 227.47169495 C-3.66353455 227.47789856 -2.76360779 227.48410217 -1.83641052 227.49049377 C-1.15079041 227.49846985 -0.46517029 227.50644592 0.2412262 227.5146637 C0.02765976 226.44611145 -0.18590668 225.3775592 -0.40594482 224.27662659 C-3.90459665 206.47826753 -6.81785227 188.58009537 -9.78543258 170.68748474 C-10.24323028 167.92812786 -10.70172156 165.16888711 -11.16044044 162.40968323 C-12.76573274 152.75353925 -14.36834755 143.09695523 -15.9684906 133.43995667 C-17.45295334 124.48156266 -18.94352621 115.5241995 -20.43686217 106.56728077 C-21.72673985 98.82895414 -23.01225312 91.0899105 -24.29444391 83.35030651 C-25.05693257 78.74822529 -25.82113988 74.14644656 -26.58981895 69.5453949 C-27.31140956 65.22532947 -28.02752328 60.90439008 -28.73959923 56.58274651 C-29.00006764 55.00755742 -29.2624151 53.43267758 -29.5268898 51.8581562 C-34.62752546 21.46571203 -34.62752546 21.46571203 -27.8681488 11.81544495 C-19.89677844 2.26931085 -12.18378813 -0.09400207 0 0 Z M273.2412262 142.5146637 C268.9157613 166.89455674 264.72541481 191.29512731 260.63050842 215.71461487 C260.07970558 218.99867688 259.52661157 222.28234038 258.97157288 225.56568909 C258.30721959 229.49685992 257.64781097 233.4288299 256.99207115 237.36144638 C256.74651691 238.82942258 256.49931796 240.29712472 256.25037575 241.76453018 C255.90622574 243.79525056 255.56822966 245.82690609 255.23170471 247.85890198 C254.9436068 249.57655258 254.9436068 249.57655258 254.64968872 251.3289032 C254.25194466 254.43106613 254.16639726 257.39117818 254.2412262 260.5146637 C259.15248822 260.5889037 264.06342254 260.64330781 268.97511292 260.67945862 C270.6454182 260.69453124 272.315684 260.7149929 273.9858551 260.74098206 C276.38878633 260.77743342 278.79119363 260.79440501 281.1943512 260.80763245 C282.3117569 260.83085823 282.3117569 260.83085823 283.45173645 260.85455322 C287.77915231 260.85595318 290.09872695 260.51019794 293.2412262 257.5146637 C294.09874921 255.44125358 294.09874921 255.44125358 294.40559387 253.05621338 C294.64102402 251.68731964 294.64102402 251.68731964 294.88121033 250.29077148 C295.11210861 248.79224388 295.11210861 248.79224388 295.34767151 247.26344299 C295.52381989 246.20950348 295.69996826 245.15556396 295.88145447 244.06968689 C296.46058216 240.57857398 297.01518849 237.08403793 297.5693512 233.58888245 C297.96584836 231.16351584 298.3637144 228.73837266 298.76289368 226.31344604 C299.5967383 221.22661672 300.41946036 216.13816047 301.2334137 211.04811096 C302.2765646 204.52542024 303.33852422 198.00598332 304.40774918 191.48752117 C305.42642777 185.27235838 306.43577704 179.05569155 307.4443512 172.83888245 C307.63760231 171.65247351 307.83085342 170.46606457 308.02996063 169.24370384 C308.57589451 165.88129331 309.11520284 162.51789054 309.65235901 159.15406799 C309.81438812 158.16112228 309.97641724 157.16817657 310.14335632 156.1451416 C310.28903046 155.2240863 310.43470459 154.30303101 310.58479309 153.35406494 C310.71233601 152.55968867 310.83987892 151.7653124 310.97128677 150.94686413 C311.28149307 148.1518523 311.2412262 145.32683706 311.2412262 142.5146637 C298.7012262 142.5146637 286.1612262 142.5146637 273.2412262 142.5146637 Z " fill="#020201" transform="translate(100.75877380371094,103.48533630371094)"/>
<path d="M0 0 C3.30058464 1.83716753 6.27612093 3.94876867 9.3125 6.1875 C14.08652387 9.46594471 18.1606354 9.83475059 23.8125 8.875 C27.70581889 7.4734052 30.52790736 5.33226269 33.75 2.8125 C39.4155029 -1.50356364 45.16691237 -2.66382017 52.203125 -2.50390625 C58.78531023 -1.54810989 64.0798455 2.31588745 69.3125 6.1875 C74.08652387 9.46594471 78.1606354 9.83475059 83.8125 8.875 C87.70581889 7.4734052 90.52790736 5.33226269 93.75 2.8125 C99.4155029 -1.50356364 105.16691237 -2.66382017 112.203125 -2.50390625 C118.77752522 -1.54924035 124.04755354 2.29029366 129.25 6.1875 C133.52221895 9.08838941 136.9702706 9.75603381 142.10546875 9.46875 C146.80681346 8.43757483 150.10807738 5.82842856 153.8125 2.875 C160.81446206 -2.04322718 166.30042593 -2.78315006 174.8125 -2.125 C177.42961352 -1.37476079 179.40793615 -0.43658028 181.8125 0.875 C181.24989111 11.68097071 179.60214322 22.21593 177.8125 32.875 C177.01030029 32.90005615 176.20810059 32.9251123 175.3815918 32.95092773 C171.75422926 33.06682043 168.12713083 33.18957751 164.5 33.3125 C163.23736328 33.35181641 161.97472656 33.39113281 160.67382812 33.43164062 C158.86108398 33.49448242 158.86108398 33.49448242 157.01171875 33.55859375 C155.33855591 33.61358032 155.33855591 33.61358032 153.6315918 33.66967773 C150.73376429 33.76431209 150.73376429 33.76431209 147.8125 34.875 C147.8125 38.505 147.8125 42.135 147.8125 45.875 C150.86013934 46.89087978 153.15968967 47.07304406 156.35546875 47.19140625 C157.96518555 47.25424805 157.96518555 47.25424805 159.60742188 47.31835938 C160.72697266 47.35767578 161.84652344 47.39699219 163 47.4375 C164.13115234 47.48068359 165.26230469 47.52386719 166.42773438 47.56835938 C169.22253354 47.67449099 172.01742162 47.77654385 174.8125 47.875 C174.71751221 48.45301361 174.62252441 49.03102722 174.5246582 49.6265564 C173.28568962 57.16744491 172.04871957 64.70866037 170.8125 72.25 C170.60831451 73.49523437 170.40412903 74.74046875 170.1937561 76.0234375 C168.05608903 89.0663636 165.92314245 102.10983181 163.85546875 115.1640625 C163.70207031 116.13219879 163.54867187 117.10033508 163.390625 118.09780884 C163.08208776 120.04549082 162.77355503 121.99317352 162.46502686 123.94085693 C158.77178645 147.243803 154.85727517 170.50672558 150.89761353 193.76556396 C147.62316522 213.00009027 144.38347186 232.23641564 141.51123047 251.53613281 C141.40645386 252.22571075 141.30167725 252.9152887 141.19372559 253.62576294 C140.92454014 255.39841979 140.66187056 257.17206299 140.39990234 258.94580078 C139.81612117 261.8569423 139.20379903 264.24928944 137.8125 266.875 C134.47217858 269.09934725 131.61535882 269.11810105 127.66699219 269.10205078 C126.42600769 269.10189972 125.18502319 269.10174866 123.90643311 269.10159302 C122.5574121 269.09138061 121.20839273 269.08094864 119.859375 269.0703125 C118.4750387 269.06658049 117.09069975 269.06373441 115.70635986 269.06173706 C112.0698309 269.05411534 108.43346269 269.03447955 104.79699707 269.0123291 C101.08343683 268.99183909 97.36985052 268.98272861 93.65625 268.97265625 C86.37492686 268.95123215 79.09373599 268.91711401 71.8125 268.875 C71.82582367 267.16944191 71.82582367 267.16944191 71.8394165 265.4294281 C71.92057267 254.70359505 71.98049927 243.97782446 72.01974869 233.25175381 C72.04060575 227.73761109 72.06888939 222.22371664 72.11425781 216.7097168 C72.15778211 211.38641488 72.18165126 206.06335148 72.19200897 200.73988533 C72.19938848 198.71093047 72.21379899 196.68198837 72.23542023 194.6531353 C72.26454147 191.80680204 72.26845233 188.96144897 72.26660156 186.11499023 C72.28098267 185.27988922 72.29536377 184.44478821 72.31018066 183.5843811 C72.27017884 177.88291212 71.08676711 174.56985075 67.8125 169.875 C65.85256945 168.43765867 65.85256945 168.43765867 63.75 167.625 C61.05726673 166.1125071 60.01284498 165.36982796 58.83984375 162.47265625 C58.39708466 160.58231353 57.97320746 158.68746815 57.56640625 156.7890625 C55.66325523 149.43284146 51.37448993 143.32230275 45.0546875 139.125 C37.84141067 135.103661 32.2971798 133.69685468 24 134.25 C20.1328125 134.375 20.1328125 134.375 16.8125 133.875 C14.51063298 131.58208966 13.45980175 129.43735887 12.125 126.48828125 C8.98285786 120.23205181 2.14893627 117.14655263 -4.1875 114.875 C-5.8501783 114.52231066 -7.51639318 114.18530774 -9.1875 113.875 C-12.13286873 98.98656746 -14.65115816 84.0652458 -16.9375 69.0625 C-17.25616827 66.99018173 -17.57517726 64.91791583 -17.89453125 62.84570312 C-18.66276029 57.85606011 -19.4264557 52.86574369 -20.1875 47.875 C-19.46451092 47.87076806 -18.74152184 47.86653612 -17.99662399 47.86217594 C-0.41184453 47.75891082 17.17289356 47.65027925 34.75760269 47.53566074 C43.26140217 47.48036199 51.76520584 47.42688548 60.26904297 47.37768555 C67.68022096 47.33480271 75.09136847 47.28851436 82.50249934 47.23812145 C86.42730799 47.21155356 90.35211072 47.18670131 94.27695465 47.16592598 C97.97049488 47.14632123 101.6639773 47.12216601 105.35746574 47.09450912 C107.36054913 47.08069797 109.36366402 47.0717221 111.36677551 47.06288147 C112.55866989 47.05309265 113.75056427 47.04330383 114.97857666 47.03321838 C116.01467197 47.02676583 117.05076729 47.02031328 118.11825943 47.0136652 C121.06256647 46.94873162 121.06256647 46.94873162 124.8125 45.875 C124.8125 42.245 124.8125 38.615 124.8125 34.875 C121.21824913 33.97643728 118.52945159 33.73912775 114.86468506 33.71678162 C113.64754822 33.7069928 112.43041138 33.69720398 111.1763916 33.68711853 C109.83081094 33.68121479 108.48522987 33.67540432 107.13964844 33.66967773 C105.72035438 33.66009581 104.30106315 33.65008555 102.8817749 33.63967896 C99.03091306 33.61265784 95.180039 33.59163317 91.32913494 33.57167697 C87.30389368 33.54980018 83.27868996 33.52241977 79.253479 33.49562073 C71.6321166 33.44571674 64.01073334 33.4007694 56.38933015 33.35759836 C47.7122314 33.30820639 39.03517034 33.25329553 30.35810804 33.19791877 C12.50960702 33.08413394 -5.33892957 32.97728728 -23.1875 32.875 C-23.88946759 28.81486239 -24.57152639 24.75162412 -25.25 20.6875 C-25.44916016 19.53701172 -25.64832031 18.38652344 -25.85351562 17.20117188 C-26.03720703 16.08935547 -26.22089844 14.97753906 -26.41015625 13.83203125 C-26.58297119 12.81085205 -26.75578613 11.78967285 -26.93383789 10.73754883 C-27.19460232 7.79485115 -27.08961287 5.68476556 -26.1875 2.875 C-18.45757218 -3.17450873 -8.93618543 -4.37004679 0 0 Z " fill="#CBF39E" transform="translate(153.1875,198.125)"/>
<path d="M0 0 C0.96456578 -0.00569124 1.92913156 -0.01138248 2.9229266 -0.01724619 C4.52371484 -0.019016 4.52371484 -0.019016 6.15684223 -0.02082157 C7.28475612 -0.02590939 8.41267002 -0.03099721 9.57476312 -0.03623921 C13.38022314 -0.05202145 17.18566411 -0.06050393 20.99114704 -0.06893253 C23.0170418 -0.07564856 25.04293254 -0.08315103 27.06882408 -0.09077286 C35.93664641 -0.12411972 44.80448038 -0.14562294 53.67234489 -0.16397271 C55.98110889 -0.16876673 58.28987241 -0.17375017 60.59863591 -0.17877793 C74.93173759 -0.20974905 89.26484328 -0.23643828 103.59796906 -0.25319672 C106.91896986 -0.25714631 110.2399706 -0.26114929 113.56097126 -0.2652216 C114.38640438 -0.26622996 115.21183749 -0.26723832 116.06228373 -0.26827724 C129.43352942 -0.28528378 142.80459001 -0.32639162 156.17574533 -0.37724458 C169.89984251 -0.42901096 183.62384449 -0.45813771 197.34803849 -0.4653936 C205.055224 -0.47005723 212.76210647 -0.48482234 220.46919537 -0.5251379 C227.03321958 -0.55943212 233.59688612 -0.57337993 240.16099479 -0.56071376 C243.51010138 -0.55488481 246.85783903 -0.56203271 250.20693493 -0.5888834 C253.83962998 -0.61645325 257.47042225 -0.6071032 261.10313129 -0.58844852 C262.15916984 -0.60524345 263.21520839 -0.62203838 264.30324811 -0.63934225 C270.42353006 -0.5606918 273.80198118 0.31326744 278.21736318 4.65759796 C281.30804688 8.38177157 280.68524598 12.54792052 280.44744587 17.1398077 C280.0386055 20.70483885 279.44381589 24.22731341 278.8268404 27.76163387 C278.65448872 28.78409206 278.48213703 29.80655025 278.30456257 30.85999203 C277.73667989 34.2187965 277.15846232 37.57573477 276.58025837 40.93277645 C276.18078818 43.28522269 275.78202647 45.63778934 275.38393879 47.99046993 C274.33565573 54.17570963 273.2788489 60.35946128 272.21990681 66.54288387 C270.53008298 76.4199424 268.85414229 86.29936901 267.17647648 96.17849827 C266.59270719 99.60960839 266.00588004 103.0401835 265.41842365 106.47066402 C263.82675919 115.78931775 262.27399583 125.09829517 260.98458576 134.46434689 C259.83949574 142.29979827 258.47192156 150.10105013 257.14698124 157.90772915 C256.57997613 161.24917649 256.01534345 164.59101773 255.45126057 167.93295956 C254.04482279 176.26289955 252.63498476 184.592263 251.22430134 192.92148495 C249.84569247 201.0615514 248.46909142 209.20195329 247.09588337 217.3429327 C246.80402212 219.07305347 246.80402212 219.07305347 246.50626469 220.83812618 C243.28122754 239.97834978 240.17954628 259.13665389 237.13219929 278.30588436 C235.00311074 291.69720445 232.83305488 305.07931266 230.53582478 318.44303036 C230.04608344 321.29323203 229.56106555 324.14421571 229.07635212 326.99527645 C228.75499229 328.8768304 228.43338936 330.75834284 228.11150837 332.6398077 C227.97193714 333.45940975 227.83236591 334.2790118 227.68856525 335.12345028 C222.94089772 362.67809315 222.94089772 362.67809315 211.44744587 371.1398077 C203.32615276 376.03878128 195.49309957 378.4574362 186.03362751 378.36685848 C185.22305897 378.36715054 184.41249043 378.36744259 183.5773592 378.36774349 C180.92066139 378.36635954 178.26425043 378.35084275 175.60760212 378.3351202 C173.75672782 378.33138674 171.90585154 378.32854134 170.05497456 378.32654476 C165.20030919 378.31893452 160.34576483 378.29930857 155.49114704 378.2771368 C150.53063309 378.25662202 145.57009945 378.24753103 140.60955524 378.23746395 C130.88879916 378.21606011 121.16813261 378.18195583 111.44744587 378.1398077 C111.82256306 377.64351864 112.19768024 377.14722958 112.58416462 376.63590145 C113.09592243 375.95656551 113.60768024 375.27722958 114.13494587 374.5773077 C114.69755619 373.85316174 115.26016651 373.12901577 115.83982563 372.38292599 C117.47325142 370.24740981 117.47325142 370.24740981 118.41602802 368.07674313 C119.54521306 365.80919805 120.37537155 364.6249598 122.44744587 363.1398077 C127.58917006 362.12588688 132.68491675 362.28289213 137.89666462 362.37808895 C139.43498185 362.37886206 140.97330488 362.37597021 142.51160908 362.36958981 C146.5606478 362.36000231 150.6084044 362.38860445 154.6572237 362.42874813 C161.11838815 362.4901845 167.57920505 362.50988725 174.04062557 362.49892902 C176.28436226 362.50299862 178.52664725 362.53319998 180.77012348 362.56590939 C192.22894563 362.71562135 192.22894563 362.71562135 202.44744587 358.1398077 C207.352157 352.93226235 209.47128657 348.13814112 210.57171345 341.14932919 C210.72557168 340.28741435 210.87942991 339.42549952 211.03795052 338.53746605 C211.53045108 335.74162067 211.9901846 332.94161298 212.44744587 330.1398077 C212.76989539 328.25207479 213.09358628 326.36455353 213.41848469 324.47724056 C214.46737786 318.3196227 215.46394256 312.15394229 216.45916462 305.98746395 C216.83508375 303.67673007 217.21137993 301.36605751 217.58802509 299.05544186 C218.57561139 292.9921176 219.55923096 286.92815757 220.54162312 280.86398983 C222.28033431 270.1335608 224.02503438 259.40410644 225.77166462 248.67496395 C226.05881651 246.90933039 226.05881651 246.90933039 226.35176945 245.10802746 C229.595148 225.17789117 232.94203463 205.26642047 236.36948872 185.36711788 C238.37830215 173.66945782 240.2680853 161.96001426 242.05323601 150.22607517 C243.28918786 142.11407517 244.61400456 134.02408455 246.02557087 125.94058895 C246.46848257 123.36835834 246.91118552 120.79609177 247.35369587 118.22379208 C248.03160286 114.29782852 248.71108088 110.3721511 249.39471149 106.44718075 C250.06951645 102.57104126 250.735046 98.69333278 251.40057087 94.81558895 C251.60676044 93.64272839 251.81295002 92.46986782 252.02538776 91.26146603 C254.0796829 81.69954617 254.0796829 81.69954617 252.07244587 72.5148077 C243.88316452 65.10545791 233.73644575 62.70161127 222.97869587 62.89371395 C213.54615064 63.55107053 204.20845312 67.37880046 197.44744587 74.1398077 C193.78986332 73.8073002 191.28113113 71.80914708 188.32244587 69.7648077 C178.33826741 63.33320068 168.56715982 61.65551408 156.78338337 63.57340145 C150.75659304 65.1135812 145.98249627 68.09955422 140.89275837 71.6163702 C137.02160954 74.02810829 137.02160954 74.02810829 134.44744587 74.1398077 C132.11541462 72.8116827 132.11541462 72.8116827 129.63494587 70.8898077 C120.05380153 63.81666879 111.26066079 62.40752654 99.44744587 63.1398077 C92.25836628 64.28043314 86.82795861 67.51537179 80.89275837 71.6163702 C77.02160954 74.02810829 77.02160954 74.02810829 74.44744587 74.1398077 C72.11541462 72.8116827 72.11541462 72.8116827 69.63494587 70.8898077 C60.06040897 63.82154664 51.2553521 62.39491642 39.44744587 63.1398077 C30.8661048 64.59469024 23.38782944 68.76233607 16.82244587 74.3898077 C12.80360219 82.42749506 16.32554496 93.51389026 17.82244587 101.8898077 C18.26940201 104.44681261 18.71472178 107.0041041 19.15838337 109.5616827 C19.35738239 110.68155575 19.55638142 111.80142879 19.76141071 112.95523739 C20.37180469 116.53736684 20.8751144 120.13160877 21.37908649 123.73013973 C22.39806911 130.9353206 23.59089194 138.10250062 24.83025837 145.2726202 C25.16501685 147.22844729 25.49977157 149.18427504 25.83430004 151.14014149 C26.64797593 155.89383105 27.46586323 160.64679594 28.28484821 165.39957333 C28.74903181 168.09424635 29.21145288 170.78921108 29.67202473 173.48450375 C30.10320953 176.00690183 30.53712882 178.52883436 30.97408772 181.05023861 C31.16783985 182.18597317 31.36159199 183.32170773 31.5612154 184.49185848 C31.73283192 185.48887783 31.90444843 186.48589718 32.08126545 187.51312923 C32.44744587 190.1398077 32.44744587 190.1398077 32.44744587 194.1398077 C31.68818806 194.54972958 30.92893024 194.95965145 30.14666462 195.3819952 C29.15279743 195.92082333 28.15893024 196.45965145 27.13494587 197.0148077 C26.14881306 197.54847958 25.16268024 198.08215145 24.14666462 198.6319952 C21.35158129 200.14702896 21.35158129 200.14702896 18.44744587 202.1398077 C16.36597366 189.96549325 14.28749961 177.79067054 12.21236897 165.61527348 C11.24763685 159.95541526 10.28205079 154.29570616 9.31414509 148.63638973 C4.77750922 122.1066535 0.33537863 95.56593266 -3.85821819 68.9795599 C-6.0389953 55.17582062 -8.36738963 41.40386938 -10.8511076 27.65140438 C-13.89295725 10.70259101 -13.89295725 10.70259101 -11.31036663 5.7648077 C-10.77153851 5.2285577 -10.23271038 4.6923077 -9.67755413 4.1398077 C-9.14388226 3.5829327 -8.61021038 3.0260577 -8.06036663 2.4523077 C-5.3594873 0.10128321 -3.4891029 0.01197649 0 0 Z " fill="#F9F1F2" transform="translate(96.5525541305542,118.86019229888916)"/>
<path d="M0 0 C1.18632523 -0.00281982 2.37265045 -0.00563965 3.59492493 -0.00854492 C4.90821274 -0.00652069 6.22150055 -0.00449646 7.57458496 -0.00241089 C8.96225531 -0.00376491 10.3499253 -0.00554484 11.7375946 -0.00772095 C15.51641654 -0.01229524 19.2952113 -0.01050574 23.07403374 -0.00734186 C27.02005972 -0.00481824 30.9660833 -0.0071558 34.91210938 -0.00872803 C41.54000264 -0.01054972 48.16788479 -0.00814343 54.79577637 -0.00338745 C62.46940137 0.00205517 70.14299981 0.00029251 77.81662416 -0.00521386 C84.39325326 -0.00974501 90.96987434 -0.01039553 97.5465045 -0.00777519 C101.47960057 -0.00621242 105.41268414 -0.00601863 109.34577942 -0.00931168 C113.04258283 -0.01219042 116.73935183 -0.01021465 120.4361515 -0.00441742 C122.44817176 -0.00245419 124.46019492 -0.0054437 126.47221375 -0.00854492 C127.65853897 -0.0057251 128.8448642 -0.00290527 130.06713867 0 C131.10470055 0.00037703 132.14226242 0.00075405 133.21126556 0.0011425 C135.53356934 0.12698364 135.53356934 0.12698364 136.53356934 1.12698364 C136.65527545 3.6747756 136.71217872 6.19594238 136.72644043 8.74514771 C136.73870667 9.94299393 136.73870667 9.94299393 136.7512207 11.16503906 C136.77614964 13.82422126 136.79262084 16.48334932 136.80700684 19.14260864 C136.81233051 20.05220085 136.81765419 20.96179306 136.82313919 21.89894867 C136.84991908 26.72495176 136.86926759 31.55092871 136.88366699 36.37698364 C136.90021393 41.33642229 136.94489264 46.29518325 136.99603844 51.25436783 C137.02991507 55.08599496 137.04126735 58.91746644 137.04689407 62.74922943 C137.05356379 64.57507173 137.06867266 66.40090538 137.09278488 68.22660065 C137.27530559 82.89860856 135.55934238 95.46759694 125.15856934 106.68948364 C124.29231934 107.49385864 123.42606934 108.29823364 122.53356934 109.12698364 C121.68794434 109.95198364 120.84231934 110.77698364 119.97106934 111.62698364 C111.84304504 118.29829709 101.46842072 120.19444652 91.27185059 120.33792114 C89.89228076 120.36595694 88.51272359 120.3946211 87.13317871 120.42385864 C84.98042729 120.46527193 82.82792115 120.50220404 80.67492676 120.52835083 C78.58175531 120.55590819 76.48962267 120.60172897 74.39685059 120.65042114 C72.52960327 120.68015015 72.52960327 120.68015015 70.62463379 120.71047974 C67.58849731 120.88338176 67.58849731 120.88338176 65.66711426 122.4067688 C64.23873195 124.36768907 64.23873195 124.36768907 63.53356934 128.12698364 C56.93356934 128.12698364 50.33356934 128.12698364 43.53356934 128.12698364 C42.54356934 126.14698364 41.55356934 124.16698364 40.53356934 122.12698364 C37.74387645 120.7321372 35.06770319 120.67191603 31.97106934 120.31448364 C23.17961532 119.09969726 16.70329596 116.34133028 9.53356934 111.12698364 C8.70856934 110.57010864 7.88356934 110.01323364 7.03356934 109.43948364 C0.01710845 102.94925732 -4.64275794 93.48229542 -6.46643066 84.12698364 C-6.56081635 81.43234159 -6.60300013 78.76401442 -6.5958252 76.0696106 C-6.59757751 75.26108643 -6.59932983 74.45256226 -6.60113525 73.61953735 C-6.60553101 70.95142461 -6.60262461 68.2833783 -6.59924316 65.61526489 C-6.59991666 63.76249682 -6.60088707 61.90972883 -6.60214233 60.05696106 C-6.60361605 56.1775427 -6.60147445 52.29814737 -6.59680176 48.41873169 C-6.59109272 43.43494753 -6.59439295 38.45121709 -6.60037422 33.46743488 C-6.60397844 29.64402355 -6.6028421 25.82062507 -6.60024643 21.99721336 C-6.59957739 20.15871359 -6.60040478 18.32021267 -6.60272598 16.48171425 C-6.60525151 13.91983546 -6.60141389 11.35804525 -6.5958252 8.7961731 C-6.59784943 8.02994125 -6.59987366 7.26370941 -6.60195923 6.47425842 C-6.57630491 0.1606395 -6.20564698 0.00225499 0 0 Z " fill="#E1996B" transform="translate(74.4664306640625,376.8730163574219)"/>
<path d="M0 0 C18.08489 -1.03342229 18.08489 -1.03342229 22.5625 2.875 C26.74135909 8.23251166 26.4660724 12.93591354 25.71423721 19.49181175 C25.30622867 22.20926406 24.85194285 24.91485126 24.37939453 27.62182617 C24.120867 29.15551346 24.120867 29.15551346 23.8571167 30.72018433 C23.28923402 34.0789888 22.71101645 37.43592707 22.1328125 40.79296875 C21.73334231 43.14541499 21.3345806 45.49798164 20.93649292 47.85066223 C19.88820986 54.03590192 18.83140303 60.21965358 17.77246094 66.40307617 C16.08263711 76.2801347 14.40669642 86.15956131 12.72903061 96.03869057 C12.14526132 99.46980068 11.55843417 102.9003758 10.97097778 106.33085632 C9.37931333 115.64951004 7.82654996 124.95848747 6.53713989 134.32453918 C5.39204987 142.15999056 4.02447569 149.96124243 2.69953537 157.76792145 C2.13253026 161.10936879 1.56789758 164.45121003 1.0038147 167.79315186 C-0.40262308 176.12309185 -1.81246111 184.4524553 -3.22314453 192.78167725 C-4.6017534 200.9217437 -5.97835445 209.06214559 -7.3515625 217.203125 C-7.54613667 218.35653885 -7.74071083 219.5099527 -7.94118118 220.69831848 C-11.16621833 239.83854208 -14.26789959 258.99684619 -17.31524658 278.16607666 C-19.44433513 291.55739675 -21.61439099 304.93950496 -23.91162109 318.30322266 C-24.40136243 321.15342433 -24.88638032 324.00440801 -25.37109375 326.85546875 C-25.69245358 328.73702269 -26.01405651 330.61853514 -26.3359375 332.5 C-26.47550873 333.31960205 -26.61507996 334.1392041 -26.75888062 334.98364258 C-31.50654815 362.53828545 -31.50654815 362.53828545 -43 371 C-51.12129311 375.89897358 -58.9543463 378.31762849 -68.41381836 378.22705078 C-69.2243869 378.22734283 -70.03495544 378.22763489 -70.87008667 378.22793579 C-73.52678448 378.22655184 -76.18319544 378.21103505 -78.83984375 378.1953125 C-80.69071805 378.19157904 -82.54159433 378.18873364 -84.39247131 378.18673706 C-89.24713668 378.17912682 -94.10168104 378.15950087 -98.95629883 378.1373291 C-103.91681278 378.11681432 -108.87734642 378.10772333 -113.83789062 378.09765625 C-123.55864671 378.07625241 -133.27931326 378.04214813 -143 378 C-142.62488281 377.50371094 -142.24976563 377.00742187 -141.86328125 376.49609375 C-141.35152344 375.81675781 -140.83976563 375.13742187 -140.3125 374.4375 C-139.74988968 373.71335403 -139.18727936 372.98920807 -138.60762024 372.24311829 C-136.97419445 370.1076021 -136.97419445 370.1076021 -136.03141785 367.93693542 C-134.90223281 365.66939035 -134.07207432 364.4851521 -132 363 C-126.85827581 361.98607918 -121.76252912 362.14308443 -116.55078125 362.23828125 C-115.01246402 362.23905435 -113.47414099 362.23616251 -111.93583679 362.2297821 C-107.88679807 362.22019461 -103.83904147 362.24879675 -99.79022217 362.28894043 C-93.32905772 362.3503768 -86.86824082 362.37007954 -80.4068203 362.35912132 C-78.16308361 362.36319092 -75.92079862 362.39339228 -73.67732239 362.42610168 C-62.21850024 362.57581365 -62.21850024 362.57581365 -52 358 C-47.09528887 352.79245465 -44.9761593 347.99833342 -43.87573242 341.00952148 C-43.72187419 340.14760665 -43.56801596 339.28569181 -43.40949535 338.39765835 C-42.91699479 335.60181297 -42.45726127 332.80180528 -42 330 C-41.67755048 328.11226709 -41.35385959 326.22474583 -41.02896118 324.33743286 C-39.98006801 318.179815 -38.98350331 312.01413459 -37.98828125 305.84765625 C-37.61236211 303.53692237 -37.23606593 301.2262498 -36.85942078 298.91563416 C-35.87183448 292.8523099 -34.88821491 286.78834987 -33.90582275 280.72418213 C-32.16711156 269.9937531 -30.42241149 259.26429874 -28.67578125 248.53515625 C-28.38862936 246.76952269 -28.38862936 246.76952269 -28.09567642 244.96821976 C-24.85229787 225.03808347 -21.50541123 205.12661277 -18.07795715 185.22731018 C-16.06914372 173.52965012 -14.17936057 161.82020656 -12.39420986 150.08626747 C-11.15825801 141.97426747 -9.83344131 133.88427685 -8.421875 125.80078125 C-7.9789633 123.22855063 -7.53626035 120.65628407 -7.09375 118.08398438 C-6.41584301 114.15802081 -5.73636499 110.23234339 -5.05273438 106.30737305 C-4.37792941 102.43123356 -3.71239987 98.55352508 -3.046875 94.67578125 C-2.84068542 93.50292068 -2.63449585 92.33006012 -2.42205811 91.12165833 C-0.23264688 81.306072 -0.23264688 81.306072 -2.875 72.1875 C-4.24023339 70.78211269 -5.61454417 69.38545583 -7 68 C-6.34 68 -5.68 68 -5 68 C-4.96986816 67.45102051 -4.93973633 66.90204102 -4.90869141 66.33642578 C-4.43792477 59.8327784 -3.4579129 53.47085156 -2.3359375 47.0546875 C-2.17925598 46.15397522 -2.02257446 45.25326294 -1.86114502 44.32525635 C-1.20237814 40.55502559 -0.53911509 36.78572978 0.13964844 33.01904297 C0.6381197 30.2410942 1.12088628 27.46076295 1.6015625 24.6796875 C1.75670319 23.84194794 1.91184387 23.00420837 2.07168579 22.14108276 C3.40235522 14.32483048 2.86201271 7.44123303 0 0 Z " fill="#ECE1DC" transform="translate(351,119)"/>
<path d="M0 0 C3.30058464 1.83716753 6.27612093 3.94876867 9.3125 6.1875 C14.08652387 9.46594471 18.1606354 9.83475059 23.8125 8.875 C27.70581889 7.4734052 30.52790736 5.33226269 33.75 2.8125 C39.4155029 -1.50356364 45.16691237 -2.66382017 52.203125 -2.50390625 C58.78531023 -1.54810989 64.0798455 2.31588745 69.3125 6.1875 C74.08652387 9.46594471 78.1606354 9.83475059 83.8125 8.875 C87.70581889 7.4734052 90.52790736 5.33226269 93.75 2.8125 C99.4155029 -1.50356364 105.16691237 -2.66382017 112.203125 -2.50390625 C118.77752522 -1.54924035 124.04755354 2.29029366 129.25 6.1875 C133.52221895 9.08838941 136.9702706 9.75603381 142.10546875 9.46875 C146.80681346 8.43757483 150.10807738 5.82842856 153.8125 2.875 C160.81446206 -2.04322718 166.30042593 -2.78315006 174.8125 -2.125 C177.42961352 -1.37476079 179.40793615 -0.43658028 181.8125 0.875 C181.24989111 11.68097071 179.60214322 22.21593 177.8125 32.875 C177.01030029 32.90005615 176.20810059 32.9251123 175.3815918 32.95092773 C171.75422926 33.06682043 168.12713083 33.18957751 164.5 33.3125 C163.23736328 33.35181641 161.97472656 33.39113281 160.67382812 33.43164062 C158.86108398 33.49448242 158.86108398 33.49448242 157.01171875 33.55859375 C155.33855591 33.61358032 155.33855591 33.61358032 153.6315918 33.66967773 C150.73376429 33.76431209 150.73376429 33.76431209 147.8125 34.875 C146.8225 37.845 146.8225 37.845 145.8125 40.875 C139.5425 40.875 133.2725 40.875 126.8125 40.875 C125.8225 37.905 125.8225 37.905 124.8125 34.875 C121.76624351 33.37188654 118.21984001 33.73723988 114.86468506 33.71678162 C113.64754822 33.7069928 112.43041138 33.69720398 111.1763916 33.68711853 C109.83081094 33.68121479 108.48522987 33.67540432 107.13964844 33.66967773 C105.72035438 33.66009581 104.30106315 33.65008555 102.8817749 33.63967896 C99.03091306 33.61265784 95.180039 33.59163317 91.32913494 33.57167697 C87.30389368 33.54980018 83.27868996 33.52241977 79.253479 33.49562073 C71.6321166 33.44571674 64.01073334 33.4007694 56.38933015 33.35759836 C47.7122314 33.30820639 39.03517034 33.25329553 30.35810804 33.19791877 C12.50960702 33.08413394 -5.33892957 32.97728728 -23.1875 32.875 C-23.88946759 28.81486239 -24.57152639 24.75162412 -25.25 20.6875 C-25.44916016 19.53701172 -25.64832031 18.38652344 -25.85351562 17.20117188 C-26.03720703 16.08935547 -26.22089844 14.97753906 -26.41015625 13.83203125 C-26.58297119 12.81085205 -26.75578613 11.78967285 -26.93383789 10.73754883 C-27.19460232 7.79485115 -27.08961287 5.68476556 -26.1875 2.875 C-18.45757218 -3.17450873 -8.93618543 -4.37004679 0 0 Z " fill="#FDFDFD" transform="translate(153.1875,198.125)"/>
<path d="M0 0 C7.59 0 15.18 0 23 0 C22.443125 3.39023438 21.88625 6.78046875 21.3125 10.2734375 C20.54117241 14.97387733 19.77054407 19.67443167 19 24.375 C18.79581451 25.62023437 18.59162903 26.86546875 18.3812561 28.1484375 C16.24358903 41.1913636 14.11064245 54.23483181 12.04296875 67.2890625 C11.81287109 68.74126694 11.81287109 68.74126694 11.578125 70.22280884 C11.26958776 72.17049082 10.96105503 74.11817352 10.65252686 76.06585693 C6.95928645 99.368803 3.04477517 122.63172558 -0.91488647 145.89056396 C-4.18933478 165.12509027 -7.42902814 184.36141564 -10.30126953 203.66113281 C-10.40604614 204.35071075 -10.51082275 205.0402887 -10.61877441 205.75076294 C-10.88795986 207.52341979 -11.15062944 209.29706299 -11.41259766 211.07080078 C-12.83808133 218.1792601 -12.83808133 218.1792601 -15.84082031 220.30029297 C-18.2083554 221.06751997 -20.06134399 221.22890076 -22.546875 221.1953125 C-23.81337891 221.18564453 -23.81337891 221.18564453 -25.10546875 221.17578125 C-25.97816406 221.15902344 -26.85085938 221.14226562 -27.75 221.125 C-28.63816406 221.11597656 -29.52632813 221.10695313 -30.44140625 221.09765625 C-32.62788058 221.07414577 -34.81380094 221.04128499 -37 221 C-36.81824219 220.31679688 -36.63648438 219.63359375 -36.44921875 218.9296875 C-34.42962919 210.83061552 -33.18651665 202.76413217 -32.1784668 194.48388672 C-31.53568097 189.36879306 -30.6918478 184.35252708 -29.640625 179.3046875 C-27.66928171 169.68953345 -26.23464809 159.99801501 -24.75396729 150.29727173 C-21.86165342 131.37393083 -18.78612616 112.50137366 -15.25878906 93.68554688 C-13.69729108 85.29890685 -12.44010782 76.94298495 -11.43798828 68.47094727 C-10.93925817 64.51863621 -10.22967051 60.70168249 -9.375 56.8125 C-8.49136517 52.77490124 -7.8285792 49.13747481 -8 45 C-8.66 45 -9.32 45 -10 45 C-10.33 45.99 -10.66 46.98 -11 48 C-14.67579569 49.99543195 -17.86228123 50.60341732 -22 50 C-24.8125 47.5625 -24.8125 47.5625 -27 45 C-27.33 44.67 -27.66 44.34 -28 44 C-28.29322866 41.06771337 -28.50004247 38.85508117 -28 36 C-25.5625 33.0625 -25.5625 33.0625 -23 31 C-22.67 30.67 -22.34 30.34 -22 30 C-17.75075981 29.95690426 -14.09271522 30.24350485 -10.5625 32.6875 C-8.76230975 35.35178157 -7.96491274 37.94653154 -7 41 C-4.30434851 27.37122392 -1.9787392 13.75223742 0 0 Z " fill="#B2E49E" transform="translate(305,246)"/>
<path d="M0 0 C6.83173836 -0.10179743 13.66327959 -0.17163191 20.49560547 -0.21972656 C22.81761993 -0.23978577 25.13958423 -0.26703991 27.46142578 -0.30175781 C30.80774345 -0.35052541 34.15339059 -0.37302643 37.5 -0.390625 C38.5305249 -0.41127014 39.5610498 -0.43191528 40.62280273 -0.45318604 C48.14010526 -0.45550257 53.53205492 0.96101677 59.2421875 5.96484375 C65.17504637 13.1325321 66.43585009 17.75635382 66 27 C65.50361146 31.3299473 64.79010575 35.6141611 64.05981445 39.91015625 C63.85326736 41.16351776 63.64672028 42.41687927 63.43391418 43.70822144 C62.87127311 47.11863848 62.29819744 50.52721891 61.7222178 53.93540573 C61.24008017 56.79260203 60.76247547 59.65054962 60.28462666 62.50846577 C59.15606943 69.2560135 58.01828785 76.00196292 56.87524414 82.74707031 C55.70052538 89.68038227 54.54390723 96.61654839 53.39574653 103.55430317 C52.40511013 109.5353461 51.40194678 115.51420119 50.38916749 121.49153423 C49.7863022 125.05079427 49.18832449 128.61069806 48.60296059 132.17288208 C47.94913329 136.14840973 47.26927708 140.11907246 46.5871582 144.08984375 C46.39941833 145.25377655 46.21167847 146.41770935 46.01824951 147.61691284 C44.24651685 157.70491984 41.20653759 165.71415608 33.35546875 172.52734375 C25.9724908 177.14323544 19.33637882 177.41293326 10.84375 177.29296875 C9.70087524 177.28872391 8.55800049 177.28447906 7.38049316 177.28010559 C3.75341591 177.26339974 0.1269075 177.22576156 -3.5 177.1875 C-5.96874194 177.17244275 -8.43749264 177.15875617 -10.90625 177.14648438 C-16.93771702 177.11352257 -22.96876227 177.06179547 -29 177 C-28.34 172.05 -27.68 167.1 -27 162 C-25.10109009 161.97812622 -25.10109009 161.97812622 -23.16381836 161.95581055 C-18.44657796 161.89763878 -13.72980549 161.82040707 -9.01293945 161.73754883 C-6.97525655 161.70438816 -4.93748376 161.67632888 -2.8996582 161.65356445 C0.03733463 161.61985538 2.97351023 161.56753126 5.91015625 161.51171875 C6.81459976 161.50532883 7.71904327 161.4989389 8.65089417 161.49235535 C15.46231782 161.33564672 20.0967954 160.04543961 25.75 156.0625 C31.81505307 147.80728887 32.12271161 135.16495527 33.77734375 125.2109375 C34.03215531 123.6984763 34.28733646 122.18607732 34.54286194 120.67373657 C35.07599559 117.51246317 35.60603006 114.35069233 36.13354492 111.18847656 C36.79576092 107.21910141 37.46359981 103.25070079 38.13352013 99.28261948 C41.08141255 81.8152974 43.92003135 64.33728781 46.55862427 46.82012939 C47.18921015 42.79105924 47.89093024 38.77466829 48.59947205 34.75863647 C49.91038614 26.00294891 49.91038614 26.00294891 47 18 C41.72452216 14.5969556 37.07870167 14.53092891 31.0078125 14.48828125 C30.06187225 14.47033005 29.11593201 14.45237885 28.1413269 14.43388367 C25.13592921 14.37993363 22.13068896 14.34593396 19.125 14.3125 C17.08070733 14.27931343 15.0364354 14.24482253 12.9921875 14.20898438 C7.99490552 14.12421585 2.99766901 14.05733161 -2 14 C-1.85866501 12.22880197 -1.71176792 10.45804713 -1.5625 8.6875 C-1.48128906 7.70136719 -1.40007812 6.71523437 -1.31640625 5.69921875 C-1 3 -1 3 0 0 Z " fill="#ECE2DD" transform="translate(378,217)"/>
<path d="M0 0 C3.64581687 -0.02887512 7.29160463 -0.04675585 10.9375 -0.0625 C12.49887695 -0.07506836 12.49887695 -0.07506836 14.09179688 -0.08789062 C15.08115234 -0.09111328 16.07050781 -0.09433594 17.08984375 -0.09765625 C18.46450806 -0.10551147 18.46450806 -0.10551147 19.86694336 -0.11352539 C22 0 22 0 23 1 C23.12170612 3.54779196 23.17860938 6.06895874 23.19287109 8.61816406 C23.20513733 9.81601028 23.20513733 9.81601028 23.21765137 11.03805542 C23.2425803 13.69723762 23.2590515 16.35636568 23.2734375 19.015625 C23.27876118 19.92521721 23.28408485 20.83480942 23.28956985 21.77196503 C23.31634974 26.59796812 23.33569825 31.42394507 23.35009766 36.25 C23.36664459 41.20943865 23.4113233 46.16819961 23.4624691 51.12738419 C23.49634574 54.95901132 23.50769801 58.7904828 23.51332474 62.62224579 C23.51999446 64.44808809 23.53510333 66.27392174 23.55921555 68.099617 C23.74173625 82.77162492 22.02577304 95.3406133 11.625 106.5625 C10.75875 107.366875 9.8925 108.17125 9 109 C8.154375 109.825 7.30875 110.65 6.4375 111.5 C-1.8564048 118.18590285 -11.63657586 119.8161328 -22 120 C-21.360625 119.38125 -20.72125 118.7625 -20.0625 118.125 C-19.03705692 117.08787096 -18.01711236 116.04530023 -17 115 C-16.28714844 114.27167969 -15.57429687 113.54335938 -14.83984375 112.79296875 C-5.475965 102.86631932 -0.71807482 92.76165949 -0.68115234 79.12719727 C-0.67110672 78.26786087 -0.6610611 77.40852448 -0.65071106 76.52314758 C-0.62000781 73.70424014 -0.60287986 70.8854271 -0.5859375 68.06640625 C-0.5672155 66.10342097 -0.54764132 64.14044365 -0.5272522 62.17747498 C-0.47603407 57.02699487 -0.43635319 51.8764887 -0.39910889 46.72589111 C-0.35900444 41.46368009 -0.30794152 36.20157651 -0.2578125 30.93945312 C-0.16117544 20.62637768 -0.07673166 10.31324142 0 0 Z " fill="#CD835B" transform="translate(188,377)"/>
<path d="M0 0 C5.2179137 2.90999033 7.97986233 6.14023384 10.6875 11.375 C12.92792025 15.52983507 14.76461353 17.91483649 19.25 19.8125 C22.30995875 19.82406884 25.23527928 19.29665217 28.25 18.8125 C34.76941774 18.18051563 39.88811618 18.81737088 45.25 22.8125 C48.94383057 26.68048139 50.183642 29.48071 51.25 34.8125 C12.64 34.8125 -25.97 34.8125 -65.75 34.8125 C-63.65103507 27.46612275 -62.55229103 24.84553467 -56.5625 20.5 C-50.93581865 17.52469728 -45.12823039 18.60288357 -39.0625 19.5 C-34.80820629 20.01972174 -32.34781835 19.29670791 -28.75 16.8125 C-27.00422507 14.99957988 -25.95544256 13.31219622 -25 10.98828125 C-20.30207819 -0.022473 -11.08255089 -3.50947445 0 0 Z " fill="#B1E39D" transform="translate(146.75,327.1875)"/>
<path d="M0 0 C2.5625 1.9375 2.5625 1.9375 5 5 C5.57878906 5.68964844 6.15757812 6.37929687 6.75390625 7.08984375 C12.2812713 13.84038353 15.61462926 19.61128752 15.27734375 28.515625 C14.50893055 35.39887563 11.927003 39.75550568 6.9140625 44.48046875 C5.04935191 45.96082063 3.24884342 47.00057829 1.125 48.0625 C-2.16767327 49.71455703 -2.16767327 49.71455703 -3.3125 52.75 C-2.84262291 57.63672178 -0.02729718 60.28795703 3 64 C5.41826287 67.37845547 7.01994597 69.96280931 6.9375 74.25 C5.46526508 78.56855576 5.46526508 78.56855576 3 80 C-3.82568807 80.88073394 -3.82568807 80.88073394 -7.5 78.125 C-8.35485651 77.10092274 -9.18427178 76.05551 -10 75 C-10.66386719 74.22527344 -11.32773438 73.45054688 -12.01171875 72.65234375 C-17.7479221 65.82451103 -20.50458456 60.54062444 -20.234375 51.515625 C-19.50321057 43.66779349 -16.3028255 39.80290888 -10.3515625 34.76171875 C-8 33 -8 33 -5.2734375 31.64453125 C-2.77513106 30.14232633 -2.77513106 30.14232633 -1.875 27.24609375 C-2.07576417 22.03249918 -5.23138502 19.16389386 -8.484375 15.29882812 C-11.16086018 11.90435324 -12.02160415 10.6815762 -11.87890625 6.1796875 C-11 3 -11 3 -9.9375 1.0625 C-6.7077139 -0.70867302 -3.52061104 -0.71523262 0 0 Z " fill="#000000" transform="translate(233,0)"/>
<path d="M0 0 C4.12116095 0.8585752 5.29687919 2.39444098 8 5.625 C8.59296875 6.32625 9.1859375 7.0275 9.796875 7.75 C14.09977386 13.01304985 16.59893346 17.08224552 17.375 23.9375 C16.60554323 31.50382494 13.63505896 36.74176994 7.78125 41.53125 C5.86389441 42.70857361 4.19888945 43.20065291 2 43.625 C1.70038805 46.7300693 1.72004511 48.21128077 3.49609375 50.8359375 C4.13675781 51.55007812 4.77742188 52.26421875 5.4375 53 C8.58252032 56.84817528 10.29778954 59.46331468 10 64.625 C8.5625 67.5625 8.5625 67.5625 6 69.625 C1.3480082 70.90830808 1.3480082 70.90830808 -2 69.625 C-8.32139149 64.2963011 -14.2363717 57.89124399 -15.265625 49.4453125 C-15.58529681 42.66370341 -13.6278847 37.91283796 -9.6875 32.375 C-6.93406876 29.55753547 -4.51563183 28.30291519 -1 26.625 C-0.67 25.635 -0.34 24.645 0 23.625 C-1.83223585 20.503413 -3.79483574 17.84726128 -6.25 15.1875 C-8.61770099 11.72050927 -8.66167253 9.74207349 -8 5.625 C-5.55401113 2.24378009 -4.10703441 0.85563217 0 0 Z " fill="#000000" transform="translate(171,12.375)"/>
<path d="M0 0 C6.50862969 3.83204714 11.63658224 10.90974672 14 18 C14.59801737 24.06840577 14.61316287 29.73806267 11.5546875 35.140625 C8.38888073 38.92686626 4.17749502 41.448858 0 44 C0.46556636 48.20777695 0.95062692 50.47647047 4.0625 53.375 C6.4556237 55.97571997 7.47293546 57.6239005 7.625 61.1875 C7 65 7 65 5.4375 67.5 C2.03618625 69.59311615 -0.07072743 69.55147685 -4 69 C-9.79136682 65.81474825 -14.0804558 58.8390884 -17 53 C-17.9860026 39.2718099 -17.9860026 39.2718099 -14 34 C-10.63260083 30.56753031 -7.8268824 27.90172528 -3 27 C-2.3975235 23.64334522 -2.56137824 21.63094053 -4.5234375 18.80859375 C-5.15507812 18.04675781 -5.78671875 17.28492187 -6.4375 16.5 C-9.30830986 13.02940633 -11.21363924 10.70006323 -11 6 C-8.4353085 0.50423249 -6.04177262 -0.79796997 0 0 Z " fill="#000000" transform="translate(288,13)"/>
<path d="M0 0 C-1.8073195 6.4260249 -7.33023173 12.57585724 -13 16 C-16.2144165 16.36076355 -16.2144165 16.36076355 -20.06347656 16.34057617 C-21.11773834 16.34123329 -21.11773834 16.34123329 -22.19329834 16.34190369 C-24.50935948 16.33981874 -26.8246908 16.31650259 -29.140625 16.29296875 C-30.74916183 16.28737173 -32.35770378 16.28310213 -33.96624756 16.28010559 C-38.19468366 16.26866513 -42.42280937 16.239205 -46.65112305 16.20599365 C-50.96789349 16.17527544 -55.28471421 16.16159652 -59.6015625 16.14648438 C-68.06785058 16.11433438 -76.53388665 16.06314789 -85 16 C-84.62488281 15.50371094 -84.24976563 15.00742187 -83.86328125 14.49609375 C-83.09564453 13.47708984 -83.09564453 13.47708984 -82.3125 12.4375 C-81.74961777 11.71317276 -81.18673553 10.98884552 -80.60679626 10.24256897 C-78.97406244 8.10886279 -78.97406244 8.10886279 -78.03883362 5.94187927 C-76.91001308 3.66572569 -76.07912338 2.48945882 -74 1 C-68.79418572 -0.0589005 -63.62446835 0.04466682 -58.33984375 0.09765625 C-56.78713391 0.08826498 -55.23443988 0.07580335 -53.68177795 0.06040955 C-49.6009894 0.02818985 -45.52132456 0.03761581 -41.44049072 0.05578613 C-37.29027859 0.0669184 -33.14035854 0.03863229 -28.99023438 0.01367188 C-19.3265189 -0.03735287 -9.66374829 0 0 0 Z " fill="#F9F1F2" transform="translate(293,481)"/>
<path d="M0 0 C0.9075 0.495 1.815 0.99 2.75 1.5 C2.18626525 12.32759495 0.51918512 22.80796816 -1.25 33.5 C-8.84 33.5 -16.43 33.5 -24.25 33.5 C-20.99259681 10.25398633 -20.99259681 10.25398633 -19.25 1.5 C-19.91 1.17 -20.57 0.84 -21.25 0.5 C-14.66318899 -2.52800286 -6.73401702 -2.89975019 0 0 Z " fill="#EFEFEF" transform="translate(332.25,197.5)"/>
<path d="M0 0 C4.02849754 2.26753754 6.73604759 5.27994159 8.75 9.4375 C9.08 11.0875 9.41 12.7375 9.75 14.4375 C2.16 14.4375 -5.43 14.4375 -13.25 14.4375 C-14.24 11.1375 -15.23 7.8375 -16.25 4.4375 C-16.91 3.1175 -17.57 1.7975 -18.25 0.4375 C-12.36040694 -2.60228997 -6.03215255 -2.65688383 0 0 Z " fill="#98CB81" transform="translate(188.25,347.5625)"/>
<path d="M0 0 C6.48447973 0.56248351 6.48447973 0.56248351 9.57421875 2.95703125 C12.13775353 6.48189158 12.41657576 8.65447939 12.07421875 13.01953125 C10.71139431 16.17554575 9.76070777 17.62990235 6.76171875 19.33203125 C3.58667182 20.14425256 1.33616522 20.49523178 -1.92578125 20.01953125 C-4.73828125 17.58203125 -4.73828125 17.58203125 -6.92578125 15.01953125 C-7.25578125 14.68953125 -7.58578125 14.35953125 -7.92578125 14.01953125 C-8.21900991 11.08724462 -8.42582372 8.87461242 -7.92578125 6.01953125 C-5.48828125 3.08203125 -5.48828125 3.08203125 -2.92578125 1.01953125 C-1.92578125 0.01953125 -1.92578125 0.01953125 0 0 Z " fill="#070805" transform="translate(255.92578125,421.98046875)"/>
<path d="M0 0 C6.48447973 0.56248351 6.48447973 0.56248351 9.57421875 2.95703125 C12.13775353 6.48189158 12.41657576 8.65447939 12.07421875 13.01953125 C10.71139431 16.17554575 9.76070777 17.62990235 6.76171875 19.33203125 C3.58667182 20.14425256 1.33616522 20.49523178 -1.92578125 20.01953125 C-4.73828125 17.58203125 -4.73828125 17.58203125 -6.92578125 15.01953125 C-7.25578125 14.68953125 -7.58578125 14.35953125 -7.92578125 14.01953125 C-8.21900991 11.08724462 -8.42582372 8.87461242 -7.92578125 6.01953125 C-5.48828125 3.08203125 -5.48828125 3.08203125 -2.92578125 1.01953125 C-1.92578125 0.01953125 -1.92578125 0.01953125 0 0 Z " fill="#070805" transform="translate(267.92578125,363.98046875)"/>
<path d="M0 0 C6.48447973 0.56248351 6.48447973 0.56248351 9.57421875 2.95703125 C12.13775353 6.48189158 12.41657576 8.65447939 12.07421875 13.01953125 C10.71139431 16.17554575 9.76070777 17.62990235 6.76171875 19.33203125 C3.58667182 20.14425256 1.33616522 20.49523178 -1.92578125 20.01953125 C-4.73828125 17.58203125 -4.73828125 17.58203125 -6.92578125 15.01953125 C-7.25578125 14.68953125 -7.58578125 14.35953125 -7.92578125 14.01953125 C-8.21900991 11.08724462 -8.42582372 8.87461242 -7.92578125 6.01953125 C-5.48828125 3.08203125 -5.48828125 3.08203125 -2.92578125 1.01953125 C-1.92578125 0.01953125 -1.92578125 0.01953125 0 0 Z " fill="#070805" transform="translate(284.92578125,275.98046875)"/>
<path d="M0 0 C6.48447973 0.56248351 6.48447973 0.56248351 9.57421875 2.95703125 C12.13775353 6.48189158 12.41657576 8.65447939 12.07421875 13.01953125 C10.71139431 16.17554575 9.76070777 17.62990235 6.76171875 19.33203125 C3.58667182 20.14425256 1.33616522 20.49523178 -1.92578125 20.01953125 C-4.73828125 17.58203125 -4.73828125 17.58203125 -6.92578125 15.01953125 C-7.25578125 14.68953125 -7.58578125 14.35953125 -7.92578125 14.01953125 C-8.21900991 11.08724462 -8.42582372 8.87461242 -7.92578125 6.01953125 C-5.48828125 3.08203125 -5.48828125 3.08203125 -2.92578125 1.01953125 C-1.92578125 0.01953125 -1.92578125 0.01953125 0 0 Z " fill="#070805" transform="translate(185.92578125,275.98046875)"/>
<path d="M0 0 C2.66058731 2.14144833 3.7253011 3.56867416 4.37109375 6.93359375 C4.59425621 10.51095567 4.15244562 12.68848069 2.5625 15.9375 C-1.05901976 18.85238176 -4.39406378 19.44335215 -9 19 C-11.92143417 17.23496686 -13.47923817 16.04152365 -15 13 C-15.5811138 5.91041162 -15.5811138 5.91041162 -13.125 2.0625 C-9.05289345 -1.88983871 -5.28514995 -1.34240931 0 0 Z " fill="#040403" transform="translate(245,312)"/>
<path d="M0 0 C5.40189963 3.01259787 8.1281335 6.07097889 10.25 11.8125 C6.98063506 12.06735425 3.70983259 12.28692831 0.4375 12.5 C-0.49126953 12.57283203 -1.42003906 12.64566406 -2.37695312 12.72070312 C-3.26962891 12.77548828 -4.16230469 12.83027344 -5.08203125 12.88671875 C-5.90421143 12.94432373 -6.7263916 13.00192871 -7.57348633 13.0612793 C-9.75 12.8125 -9.75 12.8125 -11.46875 11.44921875 C-13.0313669 9.45307094 -13.95610918 7.46003332 -14.9375 5.125 C-15.28167969 4.31675781 -15.62585938 3.50851562 -15.98046875 2.67578125 C-16.23441406 2.06089844 -16.48835937 1.44601562 -16.75 0.8125 C-11.21722611 -2.32232223 -5.94261672 -1.88182863 0 0 Z " fill="#97CA81" transform="translate(146.75,327.1875)"/>
</svg>
